<svg width="68" height="16" viewBox="0 0 68 16" fill="none" xmlns="http://www.w3.org/2000/svg">
<g clip-path="url(#clip0_47_1928)">
<path d="M24.8356 8.97481H22.3116C21.883 8.97481 21.6449 9.21292 21.6449 9.64152V9.95106C21.6449 10.8321 22.2164 11.6654 23.2164 11.6654C23.9784 11.6654 24.3593 11.1892 24.5974 10.8321C24.6927 10.6654 24.907 10.6178 25.0737 10.7368C25.2165 10.8321 25.2642 11.0464 25.1689 11.213C24.8832 11.7369 24.2403 12.3321 23.1926 12.3321C21.8116 12.3321 20.9068 11.213 20.9068 9.95106V7.4033C20.9068 6.14133 21.8116 5.02222 23.1926 5.02222C24.5736 5.02222 25.4784 6.14133 25.4784 7.4033V8.30811C25.5023 8.73671 25.2642 8.97481 24.8356 8.97481ZM24.7879 7.4033C24.7879 6.54611 24.2165 5.68892 23.2164 5.68892C22.2164 5.68892 21.6449 6.54611 21.6449 7.4033V7.71284C21.6449 8.14144 21.883 8.37954 22.3116 8.37954H24.1212C24.5498 8.37954 24.7879 8.14144 24.7879 7.71284V7.4033Z" fill="white"/>
<path d="M30.312 11.9035C30.2406 12.094 30.1454 12.3559 29.9549 12.3559C29.7644 12.3559 29.6453 12.1178 29.5977 11.9035L27.7405 5.56982C27.669 5.33172 27.8119 5.16504 28.05 5.16504C28.2881 5.16504 28.431 5.30791 28.5024 5.56982L29.7168 9.78434C29.7882 9.97483 29.8596 10.0939 29.9787 10.0939C30.0977 10.0939 30.1692 9.97483 30.2406 9.78434L31.455 5.56982C31.5264 5.30791 31.6693 5.16504 31.9074 5.16504C32.1455 5.16504 32.2645 5.35553 32.2169 5.56982L30.312 11.9035Z" fill="white"/>
<path d="M36.9791 12.356C35.598 12.356 34.6932 11.2368 34.6932 9.97487V7.4033C34.6932 6.14133 35.598 5.02222 36.9791 5.02222C38.3601 5.02222 39.2649 6.14133 39.2649 7.4033V9.95106C39.2649 11.2368 38.3601 12.356 36.9791 12.356ZM38.5506 7.4033C38.5506 6.54611 37.9791 5.68892 36.9791 5.68892C35.979 5.68892 35.4076 6.54611 35.4076 7.4033V9.95106C35.4076 10.8321 35.979 11.6654 36.9791 11.6654C37.9791 11.6654 38.5506 10.8082 38.5506 9.95106V7.4033Z" fill="white"/>
<path d="M44.0271 12.3561C43.027 12.3561 42.2651 11.7608 41.9079 11.1655C41.8127 11.0227 41.8127 10.8084 41.9794 10.6893C42.1222 10.5703 42.3127 10.5941 42.4318 10.7608C42.7651 11.2132 43.3366 11.6656 44.0271 11.6656C45.1462 11.6656 45.5986 10.8798 45.5986 10.1417C45.5986 8.83208 44.0271 8.80827 44.0271 8.80827C42.6937 8.73683 41.9079 7.9987 41.9079 6.9034C41.9079 5.97478 42.6222 4.99854 44.0271 4.99854C44.6462 4.99854 45.2414 5.26045 45.5748 5.59381C45.7177 5.73667 45.7177 5.95097 45.5748 6.07002C45.4319 6.18908 45.2652 6.18908 45.0509 6.04621C44.7652 5.8081 44.4557 5.66524 44.0271 5.66524C42.8842 5.66524 42.5984 6.49862 42.5984 6.92721C42.5984 8.07013 44.0033 8.16537 44.0033 8.16537C45.2176 8.23681 46.3129 8.78446 46.3129 10.1655C46.3129 11.4036 45.4557 12.3561 44.0271 12.3561Z" fill="white"/>
<path d="M51.0751 12.356C49.6941 12.356 48.7892 11.2368 48.7892 9.97487V7.4033C48.7892 6.14133 49.6941 5.02222 51.0751 5.02222C52.4561 5.02222 53.3609 6.14133 53.3609 7.4033V9.95106C53.3609 11.2368 52.4323 12.356 51.0751 12.356ZM52.6466 7.4033C52.6466 6.54611 52.0751 5.68892 51.0751 5.68892C50.075 5.68892 49.5036 6.54611 49.5036 7.4033V9.95106C49.5036 10.8321 50.075 11.6654 51.0751 11.6654C52.0751 11.6654 52.6466 10.8082 52.6466 9.95106V7.4033Z" fill="white"/>
<path d="M60.528 3.14121C60.1232 2.9031 59.5994 2.66499 59.0517 2.66499C58.0517 2.66499 57.4802 3.52218 57.4802 4.37937V4.47462C57.4802 4.90321 57.7183 5.14132 58.1469 5.14132H60.2184C60.4327 5.14132 60.5518 5.26037 60.5518 5.42705C60.5518 5.59372 60.4327 5.71278 60.2184 5.71278H58.1469C57.7183 5.71278 57.4802 5.95089 57.4802 6.37948V11.8322C57.4802 12.0465 57.3611 12.1655 57.1468 12.1655H57.0992C56.8849 12.1655 56.7659 12.0465 56.7659 11.8322V6.37948C56.7659 5.95089 56.5278 5.71278 56.0992 5.71278H55.8611C55.6468 5.71278 55.5277 5.59372 55.5277 5.42705C55.5277 5.26037 55.6468 5.14132 55.8611 5.14132H56.0992C56.5278 5.14132 56.7659 4.90321 56.7659 4.47462V4.37937C56.7659 3.1174 57.6707 1.99829 59.0517 1.99829C59.8137 1.99829 60.5042 2.30783 60.8851 2.56975C61.028 2.66499 61.0994 2.87929 60.9804 3.02216C60.8851 3.18883 60.6947 3.23645 60.528 3.14121Z" fill="white"/>
<path d="M67.3855 11.832C67.1474 12.0702 66.6474 12.3559 65.9331 12.3559C64.552 12.3559 63.6472 11.2368 63.6472 9.97481V6.42699C63.6472 5.9984 63.4091 5.76029 62.9805 5.76029H62.7424C62.5281 5.76029 62.4091 5.64124 62.4091 5.47456C62.4091 5.30788 62.5281 5.18883 62.7424 5.18883H62.9805C63.4091 5.18883 63.6472 4.95072 63.6472 4.52213V3.52207C63.6472 3.30777 63.7663 3.18872 63.9806 3.18872H64.0282C64.2425 3.18872 64.3615 3.30777 64.3615 3.52207V4.52213C64.3615 4.95072 64.5997 5.18883 65.0282 5.18883H66.5998C66.8141 5.18883 66.9331 5.30788 66.9331 5.47456C66.9331 5.64124 66.8141 5.76029 66.5998 5.76029H65.0282C64.5997 5.76029 64.3615 5.9984 64.3615 6.42699V9.97481C64.3615 10.8558 64.933 11.6892 65.9331 11.6892C66.3855 11.6892 66.6712 11.5225 66.8855 11.3558C67.076 11.213 67.2665 11.1653 67.4093 11.2844C67.5998 11.4273 67.5522 11.6654 67.3855 11.832Z" fill="white"/>
<path d="M4.90239 12.046C6.66439 12.2603 8.73593 12.0698 10.8551 11.4507C13.0457 10.8078 14.9267 9.78392 16.3078 8.61719C16.3316 8.40289 16.3316 8.1886 16.3316 7.9743C16.3316 7.18854 16.2125 6.4266 15.9982 5.71227C14.1172 5.18843 11.7599 5.14081 9.25977 5.64084C7.09298 6.09325 5.18812 6.90281 3.71185 7.92668C5.23574 6.4266 7.66444 5.18843 10.5456 4.59316C12.2599 4.236 13.9267 4.16457 15.4268 4.30743C14.1172 1.75967 11.4742 0.0214844 8.40258 0.0214844C4.61666 0.0214844 1.44982 2.6883 0.664059 6.23611C1.94984 5.3313 3.52136 4.54554 5.30717 4.0217C8.11685 3.18832 10.8551 3.1407 12.9028 3.73597C11.1408 3.52168 9.06928 3.71216 6.92631 4.33124C4.14044 5.14081 1.8546 6.56946 0.473572 8.14098C0.521193 10.3792 1.52125 12.3793 3.04514 13.7841C4.80714 14.1651 6.95012 14.1651 9.16453 13.6889C11.3313 13.2365 13.2362 12.4269 14.7125 11.4031C13.1886 12.9031 10.7599 14.1413 7.87874 14.7366C6.9025 14.9509 5.92625 15.0461 4.99763 15.0937C6.0215 15.5938 7.18823 15.8557 8.40258 15.8557C11.9742 15.8557 14.9982 13.4984 15.9744 10.2601C14.9267 10.8554 13.76 11.3554 12.4742 11.7364C9.66455 12.5936 6.92631 12.6412 4.90239 12.046Z" fill="white"/>
</g>
<defs>
<clipPath id="clip0_47_1928">
<rect width="67.1476" height="16" fill="white" transform="translate(0.426208)"/>
</clipPath>
</defs>
</svg>
