<svg width="48" height="48" viewBox="0 0 48 48" fill="none" xmlns="http://www.w3.org/2000/svg">
<g clip-path="url(#clip0_47_2525)">
<path d="M46.7617 15.1057C45.1168 13.4607 42.4404 13.4608 40.795 15.106C40.2889 15.6126 37.0578 18.8463 36.5642 19.3403V8.19619C36.5642 7.06931 36.1254 6.00994 35.3285 5.21316L31.3511 1.23563C30.5544 0.43875 29.4949 0 28.368 0H4.22046C1.89424 0 0.00170898 1.89253 0.00170898 4.21875V43.7812C0.00170898 46.1075 1.89424 48 4.22046 48H32.3455C34.6717 48 36.5642 46.1075 36.5642 43.7812V31.2779L46.7616 21.0719C48.4104 19.4232 48.4107 16.7545 46.7617 15.1057ZM28.1268 2.8125C28.3925 2.8125 28.9045 2.76647 29.3624 3.22434L33.3399 7.20187C33.7861 7.64822 33.7518 8.13731 33.7518 8.4375H28.1268V2.8125ZM33.7517 43.7812C33.7517 44.5567 33.121 45.1875 32.3455 45.1875H4.22046C3.44505 45.1875 2.81421 44.5567 2.81421 43.7812V4.21875C2.81421 3.44334 3.44505 2.8125 4.22046 2.8125H25.3142V9.84375C25.3142 10.6204 25.9438 11.25 26.7205 11.25H33.7517V22.1553C33.7517 22.1553 29.6029 26.3077 29.6027 26.3078L27.6149 28.2956C27.4606 28.4499 27.3442 28.6382 27.2752 28.8453L25.2864 34.8115C25.1179 35.3168 25.2494 35.874 25.6261 36.2506C26.0033 36.6278 26.5606 36.7586 27.0652 36.5903L33.0314 34.6016C33.2385 34.5326 33.4268 34.4163 33.5811 34.2619L33.7517 34.0913V43.7812ZM30.598 29.29L32.5867 31.2788L31.827 32.0384L28.844 33.0327L29.8383 30.0496L30.598 29.29ZM34.575 29.2896L32.5863 27.3008C33.6453 26.241 38.3486 21.5336 39.3461 20.5353L41.3349 22.524L34.575 29.2896ZM44.7725 19.0836L43.3228 20.5344L41.3341 18.5457L42.7842 17.0944C43.3329 16.546 44.2248 16.5461 44.7731 17.0944C45.3212 17.6428 45.3241 18.5318 44.7725 19.0836Z" fill="white"/>
<path d="M26.7205 14.0625H7.03296C6.25633 14.0625 5.62671 14.6921 5.62671 15.4688C5.62671 16.2454 6.25633 16.875 7.03296 16.875H26.7205C27.4971 16.875 28.1267 16.2454 28.1267 15.4688C28.1267 14.6921 27.4971 14.0625 26.7205 14.0625Z" fill="white"/>
<path d="M21.0955 19.6875H7.03296C6.25633 19.6875 5.62671 20.3171 5.62671 21.0938C5.62671 21.8704 6.25633 22.5 7.03296 22.5H21.0955C21.8721 22.5 22.5017 21.8704 22.5017 21.0938C22.5017 20.3171 21.8721 19.6875 21.0955 19.6875Z" fill="white"/>
<path d="M21.0955 25.3125H7.03296C6.25633 25.3125 5.62671 25.9421 5.62671 26.7188C5.62671 27.4954 6.25633 28.125 7.03296 28.125H21.0955C21.8721 28.125 22.5017 27.4954 22.5017 26.7188C22.5017 25.9421 21.8721 25.3125 21.0955 25.3125Z" fill="white"/>
<path d="M21.0955 30.9375H7.03296C6.25633 30.9375 5.62671 31.5671 5.62671 32.3438C5.62671 33.1204 6.25633 33.75 7.03296 33.75H21.0955C21.8721 33.75 22.5017 33.1204 22.5017 32.3438C22.5017 31.5671 21.8721 30.9375 21.0955 30.9375Z" fill="white"/>
<path d="M26.7205 39.5625H18.283C17.5063 39.5625 16.8767 40.1921 16.8767 40.9688C16.8767 41.7454 17.5063 42.375 18.283 42.375H26.7205C27.4971 42.375 28.1267 41.7454 28.1267 40.9688C28.1267 40.1921 27.4971 39.5625 26.7205 39.5625Z" fill="white"/>
</g>
<defs>
<clipPath id="clip0_47_2525">
<rect width="48" height="48" fill="white"/>
</clipPath>
</defs>
</svg>
