<svg width="12" height="12" viewBox="0 0 12 12" fill="none" xmlns="http://www.w3.org/2000/svg">
<path d="M10.161 3.04396L7.4658 0.348716C7.40289 0.28578 7.31702 0.25 7.22754 0.25H2.51074C1.95342 0.25 1.5 0.703419 1.5 1.26074V10.7393C1.5 11.2966 1.95342 11.75 2.51074 11.75H9.24902C9.80635 11.75 10.2598 11.2966 10.2598 10.7393V3.28223C10.2598 3.19036 10.2212 3.10409 10.161 3.04396ZM7.56445 1.40029L9.10947 2.94531H7.90137C7.71559 2.94531 7.56445 2.79417 7.56445 2.6084V1.40029ZM9.24902 11.0762H2.51074C2.32497 11.0762 2.17383 10.925 2.17383 10.7393V1.26074C2.17383 1.07497 2.32497 0.923828 2.51074 0.923828H6.89062V2.6084C6.89062 3.16572 7.34404 3.61914 7.90137 3.61914H9.58594V10.7393C9.58594 10.925 9.4348 11.0762 9.24902 11.0762Z" fill="#4A7C1D"/>
<path fill-rule="evenodd" clip-rule="evenodd" d="M7.55421 0.260343L10.2494 2.95556C10.3321 3.03818 10.3848 3.15588 10.3848 3.28223V10.7393C10.3848 11.3656 9.87538 11.875 9.24902 11.875H2.51074C1.88438 11.875 1.375 11.3656 1.375 10.7393V1.26074C1.375 0.634383 1.88438 0.125 2.51074 0.125H7.22754C7.35027 0.125 7.46792 0.174034 7.55421 0.260343C7.55421 0.260349 7.5542 0.260338 7.55421 0.260343ZM7.56445 1.40029V2.6084C7.56445 2.79417 7.71559 2.94531 7.90137 2.94531H9.10947L7.56445 1.40029ZM7.68945 1.70207V2.6084C7.68945 2.72514 7.78463 2.82031 7.90137 2.82031H8.8077L7.68945 1.70207ZM2.51074 10.9512H9.24902C9.36576 10.9512 9.46094 10.856 9.46094 10.7393V3.74414H7.90137C7.27501 3.74414 6.76562 3.23476 6.76562 2.6084V1.04883H2.51074C2.394 1.04883 2.29883 1.144 2.29883 1.26074V10.7393C2.29883 10.856 2.394 10.9512 2.51074 10.9512ZM7.4658 0.348716L10.161 3.04396C10.2212 3.10409 10.2598 3.19036 10.2598 3.28223V10.7393C10.2598 11.2966 9.80635 11.75 9.24902 11.75H2.51074C1.95342 11.75 1.5 11.2966 1.5 10.7393V1.26074C1.5 0.703419 1.95342 0.25 2.51074 0.25H7.22754C7.31702 0.25 7.40289 0.28578 7.4658 0.348716ZM2.51074 11.0762H9.24902C9.4348 11.0762 9.58594 10.925 9.58594 10.7393V3.61914H7.90137C7.34404 3.61914 6.89062 3.16572 6.89062 2.6084V0.923828H2.51074C2.32497 0.923828 2.17383 1.07497 2.17383 1.26074V10.7393C2.17383 10.925 2.32497 11.0762 2.51074 11.0762Z" fill="#4A7C1D"/>
<path d="M7.87988 5.51172H3.83691C3.65085 5.51172 3.5 5.66257 3.5 5.84863C3.5 6.0347 3.65085 6.18555 3.83691 6.18555H7.87988C8.06595 6.18555 8.2168 6.0347 8.2168 5.84863C8.2168 5.66257 8.06595 5.51172 7.87988 5.51172Z" fill="#4A7C1D"/>
<path fill-rule="evenodd" clip-rule="evenodd" d="M3.83691 5.38672H7.87988C8.13498 5.38672 8.3418 5.59353 8.3418 5.84863C8.3418 6.10373 8.13498 6.31055 7.87988 6.31055H3.83691C3.58181 6.31055 3.375 6.10373 3.375 5.84863C3.375 5.59353 3.58181 5.38672 3.83691 5.38672ZM3.83691 5.51172H7.87988C8.06595 5.51172 8.2168 5.66257 8.2168 5.84863C8.2168 6.0347 8.06595 6.18555 7.87988 6.18555H3.83691C3.65085 6.18555 3.5 6.0347 3.5 5.84863C3.5 5.66257 3.65085 5.51172 3.83691 5.51172Z" fill="#4A7C1D"/>
<path d="M7.87988 7.18555H3.83691C3.65085 7.18555 3.5 7.33639 3.5 7.52246C3.5 7.70853 3.65085 7.85938 3.83691 7.85938H7.87988C8.06595 7.85938 8.2168 7.70853 8.2168 7.52246C8.2168 7.33639 8.06595 7.18555 7.87988 7.18555Z" fill="#4A7C1D"/>
<path fill-rule="evenodd" clip-rule="evenodd" d="M3.83691 7.06055H7.87988C8.13498 7.06055 8.3418 7.26736 8.3418 7.52246C8.3418 7.77756 8.13498 7.98438 7.87988 7.98438H3.83691C3.58181 7.98438 3.375 7.77756 3.375 7.52246C3.375 7.26736 3.58181 7.06055 3.83691 7.06055ZM3.83691 7.18555H7.87988C8.06595 7.18555 8.2168 7.33639 8.2168 7.52246C8.2168 7.70853 8.06595 7.85938 7.87988 7.85938H3.83691C3.65085 7.85938 3.5 7.70853 3.5 7.52246C3.5 7.33639 3.65085 7.18555 3.83691 7.18555Z" fill="#4A7C1D"/>
<path d="M6.53223 8.85938H3.83691C3.65085 8.85938 3.5 9.01022 3.5 9.19629C3.5 9.38236 3.65085 9.5332 3.83691 9.5332H6.53223C6.71829 9.5332 6.86914 9.38236 6.86914 9.19629C6.86914 9.01022 6.71829 8.85938 6.53223 8.85938Z" fill="#4A7C1D"/>
<path fill-rule="evenodd" clip-rule="evenodd" d="M3.83691 8.73438H6.53223C6.78733 8.73438 6.99414 8.94119 6.99414 9.19629C6.99414 9.45139 6.78733 9.6582 6.53223 9.6582H3.83691C3.58181 9.6582 3.375 9.45139 3.375 9.19629C3.375 8.94119 3.58181 8.73438 3.83691 8.73438ZM3.83691 8.85938H6.53223C6.71829 8.85938 6.86914 9.01022 6.86914 9.19629C6.86914 9.38236 6.71829 9.5332 6.53223 9.5332H3.83691C3.65085 9.5332 3.5 9.38236 3.5 9.19629C3.5 9.01022 3.65085 8.85938 3.83691 8.85938Z" fill="#4A7C1D"/>
</svg>
