<svg width="48" height="48" viewBox="0 0 48 48" fill="none" xmlns="http://www.w3.org/2000/svg">
<g clip-path="url(#clip0_47_2524)">
<path d="M47.9274 46.1487L44.7572 36.6378C43.7701 33.6767 41.2642 31.4167 38.2171 30.7394L29.925 28.8968V25.3374C33.5217 23.2752 35.95 19.3972 35.95 14.9625V9.14785C35.95 7.73869 35.4844 6.34172 34.6388 5.21428L34.6327 5.20603C33.5625 3.78141 30.2227 0 24.0008 0C17.7789 0 14.4394 3.77888 13.3673 5.20603L13.3612 5.21428C12.5156 6.34172 12.05 7.73869 12.05 9.14785V14.9625C12.05 19.3972 14.4783 23.2752 18.075 25.3374V28.8968L9.7829 30.7394C6.73593 31.4167 4.2299 33.6767 3.2428 36.6378L0.0725529 46.1487C-0.173072 46.8855 0.225178 47.6819 0.961959 47.9275C1.69893 48.173 2.49515 47.7748 2.74077 47.0381L5.91102 37.5272C6.58743 35.4979 8.30493 33.949 10.3931 33.485L12.0501 33.1168V39.3934C10.3012 39.9822 9.03759 41.6365 9.03759 43.5813C9.03759 46.0178 11.0198 48.0001 13.4563 48.0001C15.8928 48.0001 17.875 46.0178 17.875 43.5813C17.875 41.6365 16.6115 39.9822 14.8626 39.3934V32.4918L18.7933 31.6183L22.7942 38.2799C23.0483 38.7035 23.506 38.9626 24 38.9626C24.494 38.9626 24.9517 38.7034 25.2058 38.2799L29.2032 31.6176L33.1374 32.4919V36.318C31.7389 36.6569 28.6187 38.2418 28.6187 42.0752V46.5938C28.6187 47.3704 29.2483 48 30.0249 48H31.5312C32.3078 48 32.9375 47.3704 32.9375 46.5938C32.9375 45.8171 32.3078 45.1875 31.5312 45.1875H31.4312V42.075C31.4312 40.3555 32.8226 38.9625 34.5437 38.9625C36.26 38.9625 37.6562 40.3588 37.6562 42.075V45.1875H37.5563C36.7796 45.1875 36.15 45.8171 36.15 46.5938C36.15 47.3704 36.7796 48 37.5563 48H39.0624C39.8391 48 40.4687 47.3704 40.4687 46.5938V42.075C40.4687 39.2925 38.5403 36.9531 35.9499 36.32V33.1167L37.6069 33.4849C39.6951 33.9489 41.4125 35.4979 42.089 37.5271L45.2592 47.038C45.5049 47.7747 46.3011 48.1729 47.038 47.9275C47.7748 47.6819 48.1731 46.8856 47.9274 46.1487ZM15.0624 43.5812C15.0624 44.4669 14.3419 45.1875 13.4562 45.1875C12.5706 45.1875 11.85 44.4669 11.85 43.5812C11.85 42.6955 12.5706 41.975 13.4562 41.975C14.3419 41.975 15.0624 42.6955 15.0624 43.5812ZM14.8625 9.14785C14.8625 8.34572 15.1267 7.55063 15.6067 6.90778C15.6083 6.90563 15.6099 6.90347 15.6115 6.90131C16.4641 5.7646 19.065 2.8125 24.0139 2.8125C28.9413 2.8125 31.55 5.78325 32.3885 6.90131C32.3901 6.90347 32.3918 6.90563 32.3933 6.90778C32.8733 7.55053 33.1375 8.34572 33.1375 9.14785V11.5675L31.2016 9.63169C30.9095 9.33957 30.6073 9.0375 30.0248 9.0375C29.8065 9.0375 29.5913 9.08832 29.396 9.186C26.0172 10.8754 21.9829 10.8754 18.6039 9.186C18.0625 8.91507 17.4086 9.02128 16.9807 9.44944L14.8626 11.5655L14.8625 9.14785ZM14.8625 14.9625V14.6637C15.6702 14.4305 16.4107 13.9967 17.0219 13.3857C17.4397 12.9678 17.9075 12.5002 18.2795 12.1282C21.926 13.6425 26.0738 13.6427 29.7205 12.1282L30.9782 13.3858C31.5893 13.9968 32.3298 14.4305 33.1375 14.6637V14.9625C33.1375 20.0009 29.0384 24.1 24 24.1C18.9616 24.1 14.8625 20.0009 14.8625 14.9625ZM27.1125 29.6355L24 34.823L20.8875 29.6354V26.5004C21.8803 26.7685 22.9237 26.9124 24 26.9124C25.0763 26.9124 26.1197 26.7685 27.1125 26.5004V29.6355Z" fill="white"/>
</g>
<defs>
<clipPath id="clip0_47_2524">
<rect width="48" height="48" fill="white"/>
</clipPath>
</defs>
</svg>
