<svg width="48" height="48" viewBox="0 0 48 48" fill="none" xmlns="http://www.w3.org/2000/svg">
<g clip-path="url(#clip0_47_2542)">
<path d="M46.5938 18.3078H40.8994V1.40625C40.8994 0.629625 40.2698 0 39.4931 0H17.3288C16.9593 0 16.5953 0.150469 16.3342 0.412125L7.51275 9.23344C7.25109 9.49463 7.10091 9.85856 7.10063 10.228V18.6181H1.40625C0.629625 18.6181 0 19.2477 0 20.0243V34.7139C0 35.4906 0.629625 36.1202 1.40625 36.1202H3.29813C4.48181 36.1202 5.59866 36.6382 6.36281 37.5424L12.4311 44.7124C12.4607 44.7568 12.4924 44.8002 12.5277 44.8419L13.973 46.5499C14.6842 47.3873 15.679 47.8973 16.7741 47.986C17.8586 48.0759 18.9349 47.733 19.7708 47.0206C20.4938 46.4063 20.9722 45.5805 21.1466 44.6614C22.1835 44.725 23.2178 44.4069 24.0616 43.6934C24.7613 43.0986 25.2121 42.3179 25.4032 41.4846C26.5546 41.6001 27.7421 41.2231 28.6274 40.3855C29.6521 40.5175 30.6113 40.5774 31.5052 40.5774C36.9907 40.5773 40.0494 38.3678 41.1762 37.3388H46.5938C47.3704 37.3388 48 36.7092 48 35.9326V19.714C48 18.9374 47.3704 18.3078 46.5938 18.3078ZM15.9225 4.80113V8.82169H11.9019L15.9225 4.80113ZM9.91313 11.6342H17.3288C18.1054 11.6342 18.735 11.0046 18.735 10.2279V2.8125H38.0869V18.3078H36.3928C34.2081 18.3078 32.0267 18.0319 29.9097 17.4877C28.9215 17.2541 27.3039 16.7205 26.2913 16.7647C24.6075 16.7558 22.9885 17.4511 21.782 18.618H9.91322L9.91313 11.6342ZM24.8139 38.2363C24.784 38.2012 23.2869 36.4438 23.2869 36.4438C22.7812 35.8543 21.8935 35.7865 21.304 36.2921C20.7145 36.7978 20.6467 37.6856 21.1523 38.275L22.3892 39.7168C22.8534 40.2633 22.7864 41.0859 22.2403 41.5502C21.6938 42.0145 20.8712 41.9474 20.4065 41.4007C20.3674 41.3548 19.1677 39.9558 19.1677 39.9558C18.6658 39.3632 17.7786 39.2896 17.1858 39.7915C16.5931 40.2934 16.5196 41.1807 17.0215 41.7734L18.0983 43.0448C18.5619 43.5678 18.4917 44.4354 17.9498 44.8769C17.4516 45.3191 16.6365 45.275 16.181 44.7997L14.6821 43.0184L8.51025 35.726C7.21116 34.189 5.31141 33.3075 3.29813 33.3075H2.8125V21.4305H18.6029L16.4874 23.302C15.151 24.3964 15.0307 26.5661 16.2371 27.8024C17.3613 29.0018 18.9497 29.6898 20.595 29.6898C22.0184 29.6898 23.3983 29.1796 24.4779 28.2552L25.8977 27.0455L31.2888 33.4828C31.7529 34.0294 31.6859 34.852 31.1399 35.3163C30.5934 35.7804 29.7708 35.7136 29.306 35.1668C29.2632 35.1166 27.4163 32.9425 27.4163 32.9425C26.9129 32.3512 26.0254 32.28 25.434 32.7833C24.8426 33.2868 24.7713 34.1743 25.2747 34.7657L26.7957 36.5523C27.2622 37.0761 27.1838 37.9472 26.6478 38.3847C26.1007 38.8491 25.2779 38.7826 24.8139 38.2363ZM45.1875 34.5263H40.5938C40.1674 34.5263 39.782 34.6978 39.5154 35.0298C39.4476 35.1054 38.6243 35.9978 36.9248 36.735C35.6528 37.2866 34.1992 37.6154 32.6167 37.7213C34.5967 36.3903 34.9943 33.5736 33.4987 31.7409L29.0792 26.4639H30.9375C31.7141 26.4639 32.3438 25.8343 32.3438 25.0577C32.3438 24.2811 31.7141 23.6514 30.9375 23.6514H26.0625C25.7307 23.654 25.4047 23.7705 25.1505 23.9872L22.6514 26.1166C22.0784 26.6071 21.3481 26.8773 20.595 26.8773C19.7113 26.8773 18.8924 26.5228 18.2893 25.8793C18.1568 25.7106 18.1804 25.5564 18.3402 25.4181L24.0032 20.408C24.6445 19.872 25.4564 19.5772 26.2912 19.5772C26.9164 19.5397 28.5863 20.0767 29.2091 20.2116C31.555 20.8147 33.9719 21.1203 36.3927 21.1203H45.1875V34.5263Z" fill="#4A7C1D"/>
<path d="M22.9539 8.43738H33.8682C34.6449 8.43738 35.2745 7.80775 35.2745 7.03113C35.2745 6.2545 34.6449 5.62488 33.8682 5.62488H22.9539C22.1772 5.62488 21.5476 6.2545 21.5476 7.03113C21.5476 7.80775 22.1772 8.43738 22.9539 8.43738Z" fill="#4A7C1D"/>
<path d="M22.9539 14.0623H33.8682C34.6449 14.0623 35.2745 13.4327 35.2745 12.6561C35.2745 11.8794 34.6449 11.2498 33.8682 11.2498H22.9539C22.1772 11.2498 21.5476 11.8794 21.5476 12.6561C21.5476 13.4327 22.1772 14.0623 22.9539 14.0623Z" fill="#4A7C1D"/>
</g>
<defs>
<clipPath id="clip0_47_2542">
<rect width="48" height="48" fill="white"/>
</clipPath>
</defs>
</svg>
