<svg width="48" height="48" viewBox="0 0 48 48" fill="none" xmlns="http://www.w3.org/2000/svg">
<g clip-path="url(#clip0_47_2522)">
<path d="M40.032 36.3564L30.9442 33.4718V29.4711C33.047 27.5718 34.3708 24.8253 34.3708 21.7753V15.1452C34.3708 9.42685 29.7185 4.7746 24 4.7746C18.2816 4.7746 13.6293 9.42685 13.6293 15.1452V21.7753C13.6293 24.8253 14.9531 27.5718 17.0559 29.4711V33.4718L7.96804 36.3564C6.03369 36.9704 4.73413 38.7464 4.73413 40.7758V46.5938C4.73413 47.3704 5.36376 48 6.14038 48H41.8597C42.6363 48 43.2659 47.3704 43.2659 46.5938V40.7758C43.2659 38.7464 41.9664 36.9704 40.032 36.3564ZM24 7.587C26.5432 7.587 28.7953 8.85085 30.1659 10.7821C28.6341 13.0804 26.0557 14.4788 23.2601 14.4788H16.4728C16.8116 10.6224 20.0571 7.587 24 7.587ZM16.4418 21.7753V17.2914H23.2601C26.406 17.2914 29.346 15.9683 31.4216 13.7198C31.5102 14.1818 31.5583 14.6578 31.5583 15.1452V21.7753C31.5583 25.9429 28.1677 29.3334 24 29.3334C19.8324 29.3334 16.4418 25.9429 16.4418 21.7753ZM24 32.1459C25.4678 32.1459 26.865 31.8388 28.1317 31.2864V34.5009C28.1317 36.7791 26.2783 38.6325 24 38.6325C21.7218 38.6325 19.8684 36.7791 19.8684 34.5009V31.2864C21.135 31.8387 22.5323 32.1459 24 32.1459ZM40.4534 45.1875H7.54663V40.7758C7.54663 39.9773 8.05794 39.2786 8.81891 39.0371L17.3059 36.3432C18.1153 39.2805 20.8089 41.4449 24 41.4449C27.1912 41.4449 29.8847 39.2805 30.6942 36.3432L39.1812 39.0371C39.9422 39.2787 40.4534 39.9774 40.4534 40.7758V45.1875Z" fill="white"/>
<path d="M6.63623 32.9096H10.7729C11.5495 32.9096 12.1791 32.28 12.1791 31.5034C12.1791 30.7267 11.5495 30.0971 10.7729 30.0971H8.04248V27.3666C8.04248 26.59 7.41286 25.9604 6.63623 25.9604C5.85961 25.9604 5.22998 26.59 5.22998 27.3666V31.5034C5.22998 32.28 5.85961 32.9096 6.63623 32.9096Z" fill="white"/>
<path d="M37.2271 32.9096H41.3637C42.1403 32.9096 42.7699 32.28 42.7699 31.5034V27.3666C42.7699 26.59 42.1403 25.9604 41.3637 25.9604C40.587 25.9604 39.9574 26.59 39.9574 27.3666V30.0971H37.2271C36.4504 30.0971 35.8208 30.7267 35.8208 31.5034C35.8208 32.28 36.4504 32.9096 37.2271 32.9096Z" fill="white"/>
<path d="M37.2271 2.8125H39.9574V5.54297C39.9574 6.31959 40.587 6.94922 41.3637 6.94922C42.1403 6.94922 42.7699 6.31959 42.7699 5.54297V1.40625C42.7699 0.629625 42.1403 0 41.3637 0H37.2271C36.4504 0 35.8208 0.629625 35.8208 1.40625C35.8208 2.18288 36.4504 2.8125 37.2271 2.8125Z" fill="white"/>
<path d="M6.63623 6.94913C7.41286 6.94913 8.04248 6.3195 8.04248 5.54288V2.8125H10.7729C11.5495 2.8125 12.1791 2.18288 12.1791 1.40625C12.1791 0.629625 11.5495 0 10.7729 0H6.63623C5.85961 0 5.22998 0.629625 5.22998 1.40625V5.54297C5.22998 6.31959 5.85961 6.94913 6.63623 6.94913Z" fill="white"/>
</g>
<defs>
<clipPath id="clip0_47_2522">
<rect width="48" height="48" fill="white"/>
</clipPath>
</defs>
</svg>
