<svg width="48" height="48" viewBox="0 0 48 48" fill="none" xmlns="http://www.w3.org/2000/svg">
<path d="M46.3892 9.838L43.0245 9.83784V6.35486C43.0245 5.55745 42.4411 4.87996 41.6524 4.76198C41.5147 4.74129 38.2368 4.26517 34.2897 4.98339C29.8894 5.78403 26.38 7.75849 23.9999 10.7434C21.6196 7.75849 18.1103 5.78403 13.7102 4.98339C9.76288 4.26533 6.48499 4.74129 6.34745 4.76198C5.55877 4.88012 4.97534 5.55761 4.97534 6.35486V9.83784H1.61066C0.72129 9.83784 0 10.5591 0 11.4487V41.8009C0 42.3224 0.252444 42.8116 0.677654 43.1138C1.10286 43.4161 1.64799 43.4936 2.14044 43.322C2.26133 43.2801 14.3313 39.1609 23.3315 43.2663C23.7562 43.46 24.2438 43.46 24.6685 43.2663C33.6435 39.1725 45.7393 43.2805 45.8596 43.322C46.0322 43.3821 46.2109 43.4117 46.389 43.4117C46.7192 43.4117 47.046 43.3102 47.3223 43.114C47.7476 42.8118 48 42.3226 48 41.801V11.4488C47.9998 10.5593 47.2787 9.838 46.3892 9.838ZM3.22148 39.6457V13.0593H4.97534V34.5099C4.97534 34.978 5.1801 35.4224 5.5342 35.7283C5.8883 36.0343 6.35925 36.1715 6.82212 36.1031C6.91101 36.0902 13.9083 35.1295 19.0205 38.6371C12.7232 37.5602 6.4205 38.8058 3.22148 39.6457ZM22.3893 37.1845C20.1376 35.1501 17.2048 33.7744 13.7102 33.1386C12.0284 32.8325 10.4682 32.7433 9.22049 32.7433C8.85007 32.7433 8.50712 32.7512 8.19698 32.7637V7.83397H8.19682C11.2926 7.69433 18.8234 8.02532 22.3893 14.0702V37.1845ZM25.6106 14.0704C29.1637 8.05134 36.7063 7.70532 39.803 7.83801V32.7637C38.4482 32.709 36.4705 32.7417 34.2897 33.1386C30.795 33.7744 27.8622 35.1499 25.6106 37.1845V14.0704ZM28.974 38.6381C34.0868 35.1284 41.0879 36.09 41.1751 36.103C41.6391 36.1726 42.1098 36.0362 42.465 35.7304C42.8202 35.4243 43.0245 34.9789 43.0245 34.5099V13.0595H44.7784V39.6457C41.5784 38.8055 35.2731 37.5594 28.974 38.6381Z" fill="#4A7C1D"/>
</svg>
