<svg width="24" height="24" viewBox="0 0 24 24" fill="none" xmlns="http://www.w3.org/2000/svg">
<path d="M7.4423 6.01031C6.64526 6.01031 6.00013 6.65661 6 7.45184C6 8.24784 6.64513 8.894 7.44242 8.894C8.23752 8.894 8.88356 8.24784 8.88356 7.45184C8.88356 6.65648 8.2374 6.01031 7.4423 6.01031Z" fill="white"/>
<path d="M6.19824 9.98792H8.68528V17.9897H6.19824V9.98792Z" fill="white"/>
<path d="M15.0169 9.78894C13.8071 9.78894 12.9959 10.4523 12.6638 11.0813H12.6305V9.98791H10.2452H10.2451V17.9896H12.73V14.0311C12.73 12.9875 12.9287 11.9767 14.2226 11.9767C15.4979 11.9767 15.5149 13.1702 15.5149 14.098V17.9895H18.0001V13.6005C18.0001 11.4462 17.5353 9.78894 15.0169 9.78894Z" fill="white"/>
</svg>
