<svg width="24" height="24" viewBox="0 0 24 24" fill="none" xmlns="http://www.w3.org/2000/svg">
<path d="M17.5323 8.50236C17.0991 7.98744 16.2994 7.7774 14.772 7.7774H9.22785C7.66556 7.7774 6.85227 8.00099 6.42074 8.5492C6 9.0837 6 9.87125 6 10.9612V13.0387C6 15.1504 6.4992 16.2225 9.22785 16.2225H14.7721C16.0966 16.2225 16.8305 16.0372 17.3053 15.5828C17.7922 15.1168 18 14.356 18 13.0387V10.9612C18 9.81175 17.9674 9.01956 17.5323 8.50236ZM13.704 12.2868L11.1864 13.6026C11.1302 13.632 11.0686 13.6466 11.0071 13.6466C10.9375 13.6466 10.8681 13.6279 10.8066 13.5906C10.6908 13.5204 10.62 13.3949 10.62 13.2595V10.6364C10.62 10.5012 10.6906 10.3758 10.8062 10.3056C10.9218 10.2354 11.0656 10.2306 11.1855 10.2929L13.7031 11.6002C13.8312 11.6667 13.9117 11.7989 13.9119 11.9432C13.912 12.0876 13.8319 12.22 13.704 12.2868Z" fill="white"/>
</svg>
