<svg width="24" height="24" viewBox="0 0 24 24" fill="none" xmlns="http://www.w3.org/2000/svg">
<path d="M9.16279 12.3912H10.4782V17.8065C10.4782 17.9134 10.5648 18 10.6717 18H12.902C13.0089 18 13.0956 17.9134 13.0956 17.8065V12.4167H14.6077C14.7061 12.4167 14.7888 12.3429 14.8 12.2453L15.0297 10.2516C15.036 10.1968 15.0186 10.1419 14.9819 10.1007C14.9452 10.0595 14.8926 10.0359 14.8374 10.0359H13.0957V8.78625C13.0957 8.40952 13.2985 8.21849 13.6986 8.21849C13.7556 8.21849 14.8374 8.21849 14.8374 8.21849C14.9443 8.21849 15.031 8.13182 15.031 8.02494V6.19498C15.031 6.08806 14.9443 6.00143 14.8374 6.00143H13.2679C13.2569 6.00089 13.2323 6 13.1961 6C12.9237 6 11.9772 6.05346 11.2295 6.74133C10.401 7.5036 10.5162 8.4163 10.5437 8.57454V10.0359H9.16279C9.05587 10.0359 8.96924 10.1225 8.96924 10.2295V12.1976C8.96924 12.3045 9.05587 12.3912 9.16279 12.3912Z" fill="white"/>
</svg>
