<svg width="24" height="24" viewBox="0 0 24 24" fill="none" xmlns="http://www.w3.org/2000/svg">
<path d="M14.6883 5.99994H9.31148C7.48553 5.99994 6 7.48554 6 9.31149V14.6883C6 16.5143 7.48553 17.9999 9.31148 17.9999H14.6883C16.5144 17.9999 17.9999 16.5143 17.9999 14.6883V9.31149C18 7.48554 16.5144 5.99994 14.6883 5.99994ZM16.9353 14.6883C16.9353 15.9273 15.9273 16.9352 14.6884 16.9352H9.31148C8.0726 16.9352 7.06469 15.9273 7.06469 14.6883V9.31149C7.06469 8.07261 8.0726 7.06463 9.31148 7.06463H14.6883C15.9273 7.06463 16.9352 8.07261 16.9352 9.31149V14.6883H16.9353Z" fill="white"/>
<path d="M12 8.90802C10.295 8.90802 8.90796 10.2951 8.90796 12.0001C8.90796 13.705 10.295 15.092 12 15.092C13.705 15.092 15.0921 13.705 15.0921 12.0001C15.0921 10.2951 13.705 8.90802 12 8.90802ZM12 14.0273C10.8822 14.0273 9.97265 13.1179 9.97265 12C9.97265 10.8821 10.8821 9.97264 12 9.97264C13.118 9.97264 14.0274 10.8821 14.0274 12C14.0274 13.1179 13.1179 14.0273 12 14.0273Z" fill="white"/>
<path d="M15.2217 8.00525C15.0166 8.00525 14.8151 8.0883 14.6702 8.2338C14.5246 8.3786 14.4409 8.58018 14.4409 8.78602C14.4409 8.99122 14.5247 9.19274 14.6702 9.33824C14.815 9.48304 15.0166 9.5668 15.2217 9.5668C15.4275 9.5668 15.6284 9.48304 15.7739 9.33824C15.9194 9.19274 16.0025 8.99115 16.0025 8.78602C16.0025 8.58018 15.9194 8.3786 15.7739 8.2338C15.6291 8.0883 15.4275 8.00525 15.2217 8.00525Z" fill="white"/>
</svg>
